<svg xmlns="http://www.w3.org/2000/svg" xmlns:xlink="http://www.w3.org/1999/xlink" viewBox="0 0 664 307" width="664" height="307"><path d="M 294.000,123.000 C 288.167,145.222 287.500,145.000 281.000,167.000" stroke-width="2.347" stroke="black" fill="none" stroke-linecap="round"></path><path d="M 281.000,167.000 C 275.648,185.005 275.167,184.722 268.000,202.000" stroke-width="1.903" stroke="black" fill="none" stroke-linecap="round"></path><path d="M 268.000,202.000 C 257.736,225.255 257.648,225.005 245.000,247.000" stroke-width="1.534" stroke="black" fill="none" stroke-linecap="round"></path><path d="M 245.000,247.000 C 236.907,260.508 237.236,260.255 227.000,272.000" stroke-width="1.787" stroke="black" fill="none" stroke-linecap="round"></path><path d="M 227.000,272.000 C 222.514,277.257 224.407,275.008 220.000,276.000" stroke-width="2.846" stroke="black" fill="none" stroke-linecap="round"></path><path d="M 220.000,276.000 C 217.462,271.019 216.514,274.257 215.000,266.000" stroke-width="3.693" stroke="black" fill="none" stroke-linecap="round"></path><path d="M 215.000,266.000 C 204.559,244.471 204.462,244.519 194.000,223.000" stroke-width="1.730" stroke="black" fill="none" stroke-linecap="round"></path><path d="M 301.000,72.000 C 304.624,71.116 304.500,72.000 308.000,72.000" stroke-width="1.125" stroke="black" fill="none" stroke-linecap="round"></path><path d="M 308.000,72.000 C 346.880,81.887 346.624,82.116 385.000,94.000" stroke-width="1.125" stroke="black" fill="none" stroke-linecap="round"></path><path d="M 385.000,94.000 C 399.761,100.666 400.380,98.887 415.000,106.000" stroke-width="1.496" stroke="black" fill="none" stroke-linecap="round"></path><path d="M 415.000,106.000 C 440.004,113.988 439.761,114.666 465.000,122.000" stroke-width="1.364" stroke="black" fill="none" stroke-linecap="round"></path><path d="M 465.000,122.000 C 478.880,127.262 479.004,126.488 493.000,131.000" stroke-width="1.787" stroke="black" fill="none" stroke-linecap="round"></path><path d="M 235.000,266.000 C 250.083,260.713 250.000,260.500 265.000,255.000" stroke-width="2.508" stroke="black" fill="none" stroke-linecap="round"></path><path d="M 265.000,255.000 C 273.338,251.043 273.583,251.713 282.000,248.000" stroke-width="2.641" stroke="black" fill="none" stroke-linecap="round"></path><path d="M 282.000,248.000 C 292.101,245.300 291.838,244.543 302.000,242.000" stroke-width="2.497" stroke="black" fill="none" stroke-linecap="round"></path><path d="M 302.000,242.000 C 309.944,238.843 310.101,239.300 318.000,236.000" stroke-width="2.649" stroke="black" fill="none" stroke-linecap="round"></path><path d="M 318.000,236.000 C 327.056,233.157 326.944,232.843 336.000,230.000" stroke-width="2.596" stroke="black" fill="none" stroke-linecap="round"></path><path d="M 336.000,230.000 C 344.101,227.231 344.056,227.157 352.000,224.000" stroke-width="2.739" stroke="black" fill="none" stroke-linecap="round"></path><path d="M 352.000,224.000 C 359.040,222.213 355.101,222.731 358.000,221.000" stroke-width="3.495" stroke="black" fill="none" stroke-linecap="round"></path><path d="M 358.000,221.000 C 352.157,218.347 356.040,218.713 346.000,217.000" stroke-width="4.411" stroke="black" fill="none" stroke-linecap="round"></path><path d="M 346.000,217.000 C 336.044,215.116 336.157,214.847 326.000,214.000" stroke-width="2.937" stroke="black" fill="none" stroke-linecap="round"></path><path d="M 326.000,214.000 C 313.442,211.356 313.544,212.616 301.000,212.000" stroke-width="2.372" stroke="black" fill="none" stroke-linecap="round"></path><path d="M 301.000,212.000 C 284.258,213.541 284.442,212.856 268.000,217.000" stroke-width="1.959" stroke="black" fill="none" stroke-linecap="round"></path><path d="M 268.000,217.000 C 260.122,218.210 260.758,218.541 254.000,222.000" stroke-width="2.588" stroke="black" fill="none" stroke-linecap="round"></path><path d="M 254.000,222.000 C 250.432,225.943 249.622,224.710 247.000,230.000" stroke-width="3.143" stroke="black" fill="none" stroke-linecap="round"></path><path d="M 247.000,230.000 C 243.000,232.204 244.932,232.443 243.000,235.000" stroke-width="3.748" stroke="black" fill="none" stroke-linecap="round"></path><path d="M 243.000,235.000 C 244.081,240.783 243.000,239.704 247.000,245.000" stroke-width="4.080" stroke="black" fill="none" stroke-linecap="round"></path><path d="M 247.000,245.000 C 249.227,247.674 248.581,247.283 252.000,248.000" stroke-width="4.110" stroke="black" fill="none" stroke-linecap="round"></path><path d="M 252.000,248.000 C 258.767,249.721 257.727,248.674 264.000,247.000" stroke-width="4.141" stroke="black" fill="none" stroke-linecap="round"></path><path d="M 264.000,247.000 C 283.027,234.541 283.767,236.721 302.000,222.000" stroke-width="1.816" stroke="black" fill="none" stroke-linecap="round"></path><path d="M 302.000,222.000 C 312.407,214.854 312.527,215.041 323.000,208.000" stroke-width="2.108" stroke="black" fill="none" stroke-linecap="round"></path><path d="M 323.000,208.000 C 331.779,199.397 329.407,203.854 336.000,200.000" stroke-width="2.642" stroke="black" fill="none" stroke-linecap="round"></path><path d="M 336.000,200.000 C 337.248,205.037 338.779,200.397 337.000,210.000" stroke-width="3.795" stroke="black" fill="none" stroke-linecap="round"></path><path d="M 337.000,210.000 C 335.481,214.949 336.748,215.037 335.000,220.000" stroke-width="3.595" stroke="black" fill="none" stroke-linecap="round"></path><path d="M 335.000,220.000 C 335.000,225.500 334.481,225.449 335.000,231.000" stroke-width="3.467" stroke="black" fill="none" stroke-linecap="round"></path><path d="M 335.000,231.000 C 333.540,236.026 335.000,234.000 335.000,237.000" stroke-width="3.923" stroke="black" fill="none" stroke-linecap="round"></path><path d="M 335.000,237.000 C 338.232,236.499 336.540,238.026 341.000,235.000" stroke-width="4.717" stroke="black" fill="none" stroke-linecap="round"></path><path d="M 341.000,235.000 C 350.117,229.685 350.232,229.999 359.000,224.000" stroke-width="2.920" stroke="black" fill="none" stroke-linecap="round"></path><path d="M 359.000,224.000 C 374.751,213.101 375.117,213.685 391.000,203.000" stroke-width="1.971" stroke="black" fill="none" stroke-linecap="round"></path><path d="M 391.000,203.000 C 412.386,187.411 411.751,190.101 433.000,178.000" stroke-width="1.576" stroke="black" fill="none" stroke-linecap="round"></path><path d="M 433.000,178.000 C 436.125,179.376 435.386,176.911 437.000,182.000" stroke-width="3.041" stroke="black" fill="none" stroke-linecap="round"></path><path d="M 437.000,182.000 C 440.205,194.957 441.125,194.376 443.000,208.000" stroke-width="2.322" stroke="black" fill="none" stroke-linecap="round"></path><path d="M 443.000,208.000 C 444.544,215.992 444.705,215.957 446.000,224.000" stroke-width="2.630" stroke="black" fill="none" stroke-linecap="round"></path><path d="M 446.000,224.000 C 446.500,227.000 446.544,226.992 447.000,230.000" stroke-width="3.533" stroke="black" fill="none" stroke-linecap="round"></path><path d="M 447.000,230.000 C 449.912,243.459 448.000,236.000 449.000,242.000" stroke-width="3.290" stroke="black" fill="none" stroke-linecap="round"></path><path d="M 449.000,242.000 C 446.125,231.724 447.412,239.459 442.000,222.000" stroke-width="3.912" stroke="black" fill="none" stroke-linecap="round"></path><path d="M 442.000,222.000 C 439.235,214.979 439.125,215.224 435.000,209.000" stroke-width="3.234" stroke="black" fill="none" stroke-linecap="round"></path><path d="M 435.000,209.000 C 430.483,202.961 430.735,202.979 425.000,198.000" stroke-width="3.005" stroke="black" fill="none" stroke-linecap="round"></path><path d="M 425.000,198.000 C 419.873,193.109 419.983,193.461 414.000,190.000" stroke-width="3.030" stroke="black" fill="none" stroke-linecap="round"></path><path d="M 414.000,190.000 C 409.619,187.613 411.373,188.609 408.000,189.000" stroke-width="3.731" stroke="black" fill="none" stroke-linecap="round"></path><path d="M 408.000,189.000 C 407.293,192.479 406.119,190.613 407.000,196.000" stroke-width="3.897" stroke="black" fill="none" stroke-linecap="round"></path><path d="M 407.000,196.000 C 406.218,204.492 406.293,204.479 406.000,213.000" stroke-width="2.995" stroke="black" fill="none" stroke-linecap="round"></path><path d="M 406.000,213.000 C 404.951,224.087 405.718,223.992 406.000,235.000" stroke-width="2.527" stroke="black" fill="none" stroke-linecap="round"></path><path d="M 406.000,235.000 C 406.319,250.709 407.451,250.087 411.000,265.000" stroke-width="2.085" stroke="black" fill="none" stroke-linecap="round"></path><path d="M 411.000,265.000 C 415.698,281.132 415.819,279.709 425.000,293.000" stroke-width="1.954" stroke="black" fill="none" stroke-linecap="round"></path><path d="M 425.000,293.000 C 431.806,300.007 430.198,299.632 440.000,302.000" stroke-width="2.415" stroke="black" fill="none" stroke-linecap="round"></path><path d="M 440.000,302.000 C 451.569,304.659 450.306,304.507 462.000,302.000" stroke-width="2.441" stroke="black" fill="none" stroke-linecap="round"></path><path d="M 462.000,302.000 C 476.918,296.302 477.069,298.159 491.000,289.000" stroke-width="2.083" stroke="black" fill="none" stroke-linecap="round"></path><path d="M 491.000,289.000 C 504.085,282.341 503.918,282.302 516.000,274.000" stroke-width="2.075" stroke="black" fill="none" stroke-linecap="round"></path><path d="M 516.000,274.000 C 529.202,264.692 529.085,264.841 541.000,254.000" stroke-width="1.930" stroke="black" fill="none" stroke-linecap="round"></path><path d="M 541.000,254.000 C 545.392,249.891 545.202,250.192 548.000,245.000" stroke-width="2.713" stroke="black" fill="none" stroke-linecap="round"></path><path d="M 548.000,245.000 C 551.409,239.535 549.392,242.391 549.000,239.000" stroke-width="3.887" stroke="black" fill="none" stroke-linecap="round"></path><path d="M 549.000,239.000 C 534.558,236.535 537.909,236.535 521.000,239.000" stroke-width="3.288" stroke="black" fill="none" stroke-linecap="round"></path><path d="M 521.000,239.000 C 507.205,243.308 507.058,241.535 494.000,249.000" stroke-width="2.275" stroke="black" fill="none" stroke-linecap="round"></path><path d="M 494.000,249.000 C 478.514,256.530 478.205,255.808 463.000,264.000" stroke-width="1.967" stroke="black" fill="none" stroke-linecap="round"></path><path d="M 463.000,264.000 C 450.936,268.528 451.514,269.530 440.000,275.000" stroke-width="2.157" stroke="black" fill="none" stroke-linecap="round"></path><path d="M 440.000,275.000 C 419.558,286.700 426.436,283.028 414.000,293.000" stroke-width="1.963" stroke="black" fill="none" stroke-linecap="round"></path><path d="M 414.000,293.000 C 419.658,293.300 412.058,295.200 425.000,292.000" stroke-width="3.303" stroke="black" fill="none" stroke-linecap="round"></path><path d="M 425.000,292.000 C 438.022,288.071 438.158,288.800 451.000,284.000" stroke-width="2.343" stroke="black" fill="none" stroke-linecap="round"></path><path d="M 451.000,284.000 C 463.424,279.751 463.522,280.071 476.000,276.000" stroke-width="2.190" stroke="black" fill="none" stroke-linecap="round"></path></svg>